<mxfile host="app.diagrams.net" modified="2024-04-27T11:41:29.470Z" agent="Mozilla/5.0 (Windows NT 10.0; Win64; x64; rv:125.0) Gecko/20100101 Firefox/125.0" etag="Szgnkv3IprkWKFBEyGGF" version="24.3.1" type="device">
  <diagram name="Page-1" id="M6XQ5K260RJl642FiYuS">
    <mxGraphModel dx="1050" dy="530" grid="1" gridSize="10" guides="1" tooltips="1" connect="1" arrows="1" fold="1" page="1" pageScale="1" pageWidth="827" pageHeight="1169" math="0" shadow="0">
      <root>
        <mxCell id="0" />
        <mxCell id="1" parent="0" />
        <mxCell id="42YLPIuThz465m4JHxSK-31" style="edgeStyle=orthogonalEdgeStyle;rounded=0;orthogonalLoop=1;jettySize=auto;html=1;exitX=0.5;exitY=1;exitDx=0;exitDy=0;entryX=0.5;entryY=0;entryDx=0;entryDy=0;" edge="1" parent="1" source="42YLPIuThz465m4JHxSK-1" target="42YLPIuThz465m4JHxSK-2">
          <mxGeometry relative="1" as="geometry" />
        </mxCell>
        <mxCell id="42YLPIuThz465m4JHxSK-1" value="Atmega receives message" style="rounded=1;whiteSpace=wrap;html=1;" vertex="1" parent="1">
          <mxGeometry x="360" y="50" width="120" height="60" as="geometry" />
        </mxCell>
        <mxCell id="42YLPIuThz465m4JHxSK-13" style="edgeStyle=orthogonalEdgeStyle;rounded=0;orthogonalLoop=1;jettySize=auto;html=1;exitX=0;exitY=0.5;exitDx=0;exitDy=0;entryX=1;entryY=0.5;entryDx=0;entryDy=0;" edge="1" parent="1" source="42YLPIuThz465m4JHxSK-2" target="42YLPIuThz465m4JHxSK-3">
          <mxGeometry relative="1" as="geometry" />
        </mxCell>
        <mxCell id="42YLPIuThz465m4JHxSK-14" style="edgeStyle=orthogonalEdgeStyle;rounded=0;orthogonalLoop=1;jettySize=auto;html=1;exitX=1;exitY=0.5;exitDx=0;exitDy=0;entryX=0;entryY=0.5;entryDx=0;entryDy=0;" edge="1" parent="1" source="42YLPIuThz465m4JHxSK-2" target="42YLPIuThz465m4JHxSK-7">
          <mxGeometry relative="1" as="geometry" />
        </mxCell>
        <mxCell id="42YLPIuThz465m4JHxSK-2" value="Checks value from received message" style="rounded=1;whiteSpace=wrap;html=1;" vertex="1" parent="1">
          <mxGeometry x="360" y="150" width="120" height="70" as="geometry" />
        </mxCell>
        <mxCell id="42YLPIuThz465m4JHxSK-10" style="edgeStyle=orthogonalEdgeStyle;rounded=0;orthogonalLoop=1;jettySize=auto;html=1;exitX=0.5;exitY=1;exitDx=0;exitDy=0;entryX=0.5;entryY=0;entryDx=0;entryDy=0;" edge="1" parent="1" source="42YLPIuThz465m4JHxSK-3" target="42YLPIuThz465m4JHxSK-9">
          <mxGeometry relative="1" as="geometry" />
        </mxCell>
        <mxCell id="42YLPIuThz465m4JHxSK-3" value="Re enable global interupts and call CloseGripper function" style="rounded=1;whiteSpace=wrap;html=1;" vertex="1" parent="1">
          <mxGeometry x="120" y="150" width="120" height="70" as="geometry" />
        </mxCell>
        <mxCell id="42YLPIuThz465m4JHxSK-5" value="Message = 6" style="text;html=1;align=center;verticalAlign=middle;whiteSpace=wrap;rounded=0;" vertex="1" parent="1">
          <mxGeometry x="250" y="140" width="90" height="30" as="geometry" />
        </mxCell>
        <mxCell id="42YLPIuThz465m4JHxSK-6" value="Message = 8" style="text;html=1;align=center;verticalAlign=middle;whiteSpace=wrap;rounded=0;" vertex="1" parent="1">
          <mxGeometry x="500" y="140" width="90" height="30" as="geometry" />
        </mxCell>
        <mxCell id="42YLPIuThz465m4JHxSK-45" style="edgeStyle=orthogonalEdgeStyle;rounded=0;orthogonalLoop=1;jettySize=auto;html=1;exitX=0.5;exitY=1;exitDx=0;exitDy=0;entryX=0.5;entryY=0;entryDx=0;entryDy=0;" edge="1" parent="1" source="42YLPIuThz465m4JHxSK-7" target="42YLPIuThz465m4JHxSK-33">
          <mxGeometry relative="1" as="geometry">
            <Array as="points">
              <mxPoint x="650" y="230" />
              <mxPoint x="480" y="230" />
            </Array>
          </mxGeometry>
        </mxCell>
        <mxCell id="42YLPIuThz465m4JHxSK-7" value="Re enable global interupts and call OpenGripper function" style="rounded=1;whiteSpace=wrap;html=1;" vertex="1" parent="1">
          <mxGeometry x="590" y="150" width="120" height="70" as="geometry" />
        </mxCell>
        <mxCell id="42YLPIuThz465m4JHxSK-15" style="edgeStyle=orthogonalEdgeStyle;rounded=0;orthogonalLoop=1;jettySize=auto;html=1;exitX=1;exitY=0.5;exitDx=0;exitDy=0;entryX=0;entryY=0.5;entryDx=0;entryDy=0;" edge="1" parent="1" source="42YLPIuThz465m4JHxSK-9" target="42YLPIuThz465m4JHxSK-11">
          <mxGeometry relative="1" as="geometry" />
        </mxCell>
        <mxCell id="42YLPIuThz465m4JHxSK-9" value="Toggles power low on PINC3 to get correct motor direction" style="rounded=1;whiteSpace=wrap;html=1;" vertex="1" parent="1">
          <mxGeometry x="10" y="260" width="120" height="60" as="geometry" />
        </mxCell>
        <mxCell id="42YLPIuThz465m4JHxSK-21" style="edgeStyle=orthogonalEdgeStyle;rounded=0;orthogonalLoop=1;jettySize=auto;html=1;exitX=0.5;exitY=1;exitDx=0;exitDy=0;entryX=0.5;entryY=0;entryDx=0;entryDy=0;" edge="1" parent="1" source="42YLPIuThz465m4JHxSK-11" target="42YLPIuThz465m4JHxSK-20">
          <mxGeometry relative="1" as="geometry" />
        </mxCell>
        <mxCell id="42YLPIuThz465m4JHxSK-11" value="Activates motor by setting dutycycle" style="rounded=1;whiteSpace=wrap;html=1;" vertex="1" parent="1">
          <mxGeometry x="180" y="260" width="120" height="60" as="geometry" />
        </mxCell>
        <mxCell id="42YLPIuThz465m4JHxSK-29" style="edgeStyle=orthogonalEdgeStyle;rounded=0;orthogonalLoop=1;jettySize=auto;html=1;exitX=0.75;exitY=1;exitDx=0;exitDy=0;entryX=0.5;entryY=0;entryDx=0;entryDy=0;" edge="1" parent="1" source="42YLPIuThz465m4JHxSK-16" target="42YLPIuThz465m4JHxSK-18">
          <mxGeometry relative="1" as="geometry" />
        </mxCell>
        <mxCell id="42YLPIuThz465m4JHxSK-16" value="read value from ADC" style="rounded=1;whiteSpace=wrap;html=1;" vertex="1" parent="1">
          <mxGeometry x="10" y="340" width="120" height="60" as="geometry" />
        </mxCell>
        <mxCell id="42YLPIuThz465m4JHxSK-25" style="edgeStyle=orthogonalEdgeStyle;rounded=0;orthogonalLoop=1;jettySize=auto;html=1;exitX=0;exitY=0.5;exitDx=0;exitDy=0;entryX=0.25;entryY=1;entryDx=0;entryDy=0;" edge="1" parent="1" source="42YLPIuThz465m4JHxSK-18" target="42YLPIuThz465m4JHxSK-16">
          <mxGeometry relative="1" as="geometry" />
        </mxCell>
        <mxCell id="42YLPIuThz465m4JHxSK-30" style="edgeStyle=orthogonalEdgeStyle;rounded=0;orthogonalLoop=1;jettySize=auto;html=1;exitX=1;exitY=0.5;exitDx=0;exitDy=0;entryX=0;entryY=0.5;entryDx=0;entryDy=0;" edge="1" parent="1" source="42YLPIuThz465m4JHxSK-18" target="42YLPIuThz465m4JHxSK-28">
          <mxGeometry relative="1" as="geometry" />
        </mxCell>
        <mxCell id="42YLPIuThz465m4JHxSK-18" value="IF (ADC &amp;lt;= 461)" style="rhombus;whiteSpace=wrap;html=1;" vertex="1" parent="1">
          <mxGeometry x="80" y="430" width="110" height="100" as="geometry" />
        </mxCell>
        <mxCell id="42YLPIuThz465m4JHxSK-23" style="edgeStyle=orthogonalEdgeStyle;rounded=0;orthogonalLoop=1;jettySize=auto;html=1;exitX=0;exitY=0.5;exitDx=0;exitDy=0;entryX=1;entryY=0.5;entryDx=0;entryDy=0;" edge="1" parent="1" source="42YLPIuThz465m4JHxSK-20" target="42YLPIuThz465m4JHxSK-16">
          <mxGeometry relative="1" as="geometry" />
        </mxCell>
        <mxCell id="42YLPIuThz465m4JHxSK-20" value="Short delay to let motor start" style="rounded=1;whiteSpace=wrap;html=1;" vertex="1" parent="1">
          <mxGeometry x="180" y="340" width="120" height="60" as="geometry" />
        </mxCell>
        <mxCell id="42YLPIuThz465m4JHxSK-26" value="No" style="text;html=1;align=center;verticalAlign=middle;whiteSpace=wrap;rounded=0;" vertex="1" parent="1">
          <mxGeometry x="30" y="420" width="60" height="30" as="geometry" />
        </mxCell>
        <mxCell id="42YLPIuThz465m4JHxSK-28" value="Stop motor by setting dutycycle to 0 and send message to PC" style="rounded=1;whiteSpace=wrap;html=1;" vertex="1" parent="1">
          <mxGeometry x="250" y="450" width="120" height="60" as="geometry" />
        </mxCell>
        <mxCell id="42YLPIuThz465m4JHxSK-32" style="edgeStyle=orthogonalEdgeStyle;rounded=0;orthogonalLoop=1;jettySize=auto;html=1;exitX=1;exitY=0.5;exitDx=0;exitDy=0;entryX=0;entryY=0.5;entryDx=0;entryDy=0;" edge="1" parent="1" source="42YLPIuThz465m4JHxSK-33" target="42YLPIuThz465m4JHxSK-35">
          <mxGeometry relative="1" as="geometry" />
        </mxCell>
        <mxCell id="42YLPIuThz465m4JHxSK-33" value="Toggles power high on PINC3 to get correct motor direction" style="rounded=1;whiteSpace=wrap;html=1;" vertex="1" parent="1">
          <mxGeometry x="420" y="250" width="120" height="60" as="geometry" />
        </mxCell>
        <mxCell id="42YLPIuThz465m4JHxSK-34" style="edgeStyle=orthogonalEdgeStyle;rounded=0;orthogonalLoop=1;jettySize=auto;html=1;exitX=0.5;exitY=1;exitDx=0;exitDy=0;entryX=0.5;entryY=0;entryDx=0;entryDy=0;" edge="1" parent="1" source="42YLPIuThz465m4JHxSK-35" target="42YLPIuThz465m4JHxSK-42">
          <mxGeometry relative="1" as="geometry" />
        </mxCell>
        <mxCell id="42YLPIuThz465m4JHxSK-35" value="Activates motor by setting dutycycle" style="rounded=1;whiteSpace=wrap;html=1;" vertex="1" parent="1">
          <mxGeometry x="590" y="250" width="120" height="60" as="geometry" />
        </mxCell>
        <mxCell id="42YLPIuThz465m4JHxSK-36" style="edgeStyle=orthogonalEdgeStyle;rounded=0;orthogonalLoop=1;jettySize=auto;html=1;exitX=0.75;exitY=1;exitDx=0;exitDy=0;entryX=0.5;entryY=0;entryDx=0;entryDy=0;" edge="1" parent="1" source="42YLPIuThz465m4JHxSK-37" target="42YLPIuThz465m4JHxSK-40">
          <mxGeometry relative="1" as="geometry" />
        </mxCell>
        <mxCell id="42YLPIuThz465m4JHxSK-37" value="read value from ADC" style="rounded=1;whiteSpace=wrap;html=1;" vertex="1" parent="1">
          <mxGeometry x="420" y="330" width="120" height="60" as="geometry" />
        </mxCell>
        <mxCell id="42YLPIuThz465m4JHxSK-38" style="edgeStyle=orthogonalEdgeStyle;rounded=0;orthogonalLoop=1;jettySize=auto;html=1;exitX=0;exitY=0.5;exitDx=0;exitDy=0;entryX=0.25;entryY=1;entryDx=0;entryDy=0;" edge="1" parent="1" source="42YLPIuThz465m4JHxSK-40" target="42YLPIuThz465m4JHxSK-37">
          <mxGeometry relative="1" as="geometry" />
        </mxCell>
        <mxCell id="42YLPIuThz465m4JHxSK-39" style="edgeStyle=orthogonalEdgeStyle;rounded=0;orthogonalLoop=1;jettySize=auto;html=1;exitX=1;exitY=0.5;exitDx=0;exitDy=0;entryX=0;entryY=0.5;entryDx=0;entryDy=0;" edge="1" parent="1" source="42YLPIuThz465m4JHxSK-40" target="42YLPIuThz465m4JHxSK-44">
          <mxGeometry relative="1" as="geometry" />
        </mxCell>
        <mxCell id="42YLPIuThz465m4JHxSK-40" value="IF (ADC &amp;gt;= 570)" style="rhombus;whiteSpace=wrap;html=1;" vertex="1" parent="1">
          <mxGeometry x="490" y="420" width="110" height="100" as="geometry" />
        </mxCell>
        <mxCell id="42YLPIuThz465m4JHxSK-41" style="edgeStyle=orthogonalEdgeStyle;rounded=0;orthogonalLoop=1;jettySize=auto;html=1;exitX=0;exitY=0.5;exitDx=0;exitDy=0;entryX=1;entryY=0.5;entryDx=0;entryDy=0;" edge="1" parent="1" source="42YLPIuThz465m4JHxSK-42" target="42YLPIuThz465m4JHxSK-37">
          <mxGeometry relative="1" as="geometry" />
        </mxCell>
        <mxCell id="42YLPIuThz465m4JHxSK-42" value="Short delay to let motor start" style="rounded=1;whiteSpace=wrap;html=1;" vertex="1" parent="1">
          <mxGeometry x="590" y="330" width="120" height="60" as="geometry" />
        </mxCell>
        <mxCell id="42YLPIuThz465m4JHxSK-43" value="No" style="text;html=1;align=center;verticalAlign=middle;whiteSpace=wrap;rounded=0;" vertex="1" parent="1">
          <mxGeometry x="440" y="410" width="60" height="30" as="geometry" />
        </mxCell>
        <mxCell id="42YLPIuThz465m4JHxSK-44" value="Stop motor by setting dutycycle to 0 and send message to PC" style="rounded=1;whiteSpace=wrap;html=1;" vertex="1" parent="1">
          <mxGeometry x="660" y="440" width="120" height="60" as="geometry" />
        </mxCell>
        <mxCell id="42YLPIuThz465m4JHxSK-46" value="Yes" style="text;html=1;align=center;verticalAlign=middle;whiteSpace=wrap;rounded=0;" vertex="1" parent="1">
          <mxGeometry x="180" y="440" width="60" height="30" as="geometry" />
        </mxCell>
        <mxCell id="42YLPIuThz465m4JHxSK-47" value="Yes" style="text;html=1;align=center;verticalAlign=middle;whiteSpace=wrap;rounded=0;" vertex="1" parent="1">
          <mxGeometry x="590" y="430" width="60" height="30" as="geometry" />
        </mxCell>
      </root>
    </mxGraphModel>
  </diagram>
</mxfile>
